<svg width="72" height="72" viewBox="0 0 72 72" fill="none" xmlns="http://www.w3.org/2000/svg">
<g clip-path="url(#clip0_2986_9338)">
<path d="M65.7598 19.86C65.4554 19.127 64.8729 18.5444 64.1398 18.24C63.7791 18.0863 63.3918 18.0047 62.9998 18H47.9998C47.2042 18 46.4411 18.3161 45.8785 18.8787C45.3159 19.4413 44.9998 20.2044 44.9998 21C44.9998 21.7956 45.3159 22.5587 45.8785 23.1213C46.4411 23.6839 47.2042 24 47.9998 24H55.7698L38.9998 40.77L29.1298 30.87C28.8509 30.5888 28.5191 30.3656 28.1535 30.2133C27.788 30.061 27.3959 29.9826 26.9998 29.9826C26.6038 29.9826 26.2117 30.061 25.8461 30.2133C25.4805 30.3656 25.1487 30.5888 24.8698 30.87L6.86982 48.87C6.58863 49.1489 6.36545 49.4807 6.21314 49.8463C6.06084 50.2118 5.98242 50.604 5.98242 51C5.98242 51.396 6.06084 51.7882 6.21314 52.1537C6.36545 52.5193 6.58863 52.8511 6.86982 53.13C7.14871 53.4112 7.48051 53.6344 7.84609 53.7867C8.21166 53.939 8.60378 54.0174 8.99982 54.0174C9.39585 54.0174 9.78797 53.939 10.1535 53.7867C10.5191 53.6344 10.8509 53.4112 11.1298 53.13L26.9998 37.23L36.8698 47.13C37.1487 47.4112 37.4805 47.6344 37.8461 47.7867C38.2117 47.939 38.6038 48.0174 38.9998 48.0174C39.3959 48.0174 39.788 47.939 40.1535 47.7867C40.5191 47.6344 40.8509 47.4112 41.1298 47.13L59.9998 28.23V36C59.9998 36.7956 60.3159 37.5587 60.8785 38.1213C61.4411 38.6839 62.2042 39 62.9998 39C63.7955 39 64.5585 38.6839 65.1211 38.1213C65.6838 37.5587 65.9998 36.7956 65.9998 36V21C65.9951 20.608 65.9135 20.2207 65.7598 19.86Z" fill="#23A6F0"/>
</g>
<defs>
<clipPath id="clip0_2986_9338">
<rect width="72" height="72" fill="white"/>
</clipPath>
</defs>
</svg>
